HIERARCHY
ROOT Hips
{
	OFFSET 0.00 0.00 0.00
	CHANNELS 6 Xposition Yposition Zposition Xrotation Yrotation Zrotation
	JOINT Spine
	{
		OFFSET 0.00000 3.24121 0.00000
		CHANNELS 3 Xrotation Yrotation Zrotation
		JOINT Head
		{
			OFFSET 0.00000 18.38296 0.00000
			CHANNELS 3 Xrotation Yrotation Zrotation
			End Site
			{
				OFFSET 0.00000 4.52755 0.00000
			}
		}
		JOINT LeftShoulder
		{
			OFFSET 0.00000 12.82826 0.00000
			CHANNELS 3 Xrotation Yrotation Zrotation
			JOINT LeftArm
			{
				OFFSET 7.74805 0.00000 0.00000
				CHANNELS 3 Xrotation Yrotation Zrotation
				JOINT LeftForeArm
				{
					OFFSET 10.63561 0.00000 0.00000
					CHANNELS 3 Yrotation Zrotation Xrotation
					JOINT LeftHand
					{
						OFFSET 8.34675 0.00000 0.00000
						CHANNELS 3 Xrotation Yrotation Zrotation
						JOINT LeftHandThumb1
						{
							OFFSET 0.00000 0.00000 0.00000
							CHANNELS 3 Xrotation Zrotation Yrotation
							End Site
							{
								OFFSET 0.00000 0.00000 3.93700
							}
						}
						End Site
						{
							OFFSET 3.93700 0.00000 0.00000
						}
					}
				}
			}
		}
		JOINT RightShoulder
		{
			OFFSET 0.00000 12.82826 0.00000
			CHANNELS 3 Xrotation Yrotation Zrotation
			JOINT RightArm
			{
				OFFSET -7.74805 0.00000 0.00000
				CHANNELS 3 Xrotation Yrotation Zrotation
				JOINT RightForeArm
				{
					OFFSET -10.63561 0.00000 0.00000
					CHANNELS 3 Yrotation Zrotation Xrotation
					JOINT RightHand
					{
						OFFSET -8.34675 0.00000 0.00000
						CHANNELS 3 Xrotation Yrotation Zrotation
						JOINT RightHandThumb1
						{
							OFFSET 0.00000 0.00000 0.00000
							CHANNELS 3 Xrotation Zrotation Yrotation
							End Site
							{
								OFFSET 0.00000 0.00000 3.93700
							}
						}
						End Site
						{
							OFFSET -3.93700 0.00000 0.00000
						}
					}
				}
			}
		}
	}
	JOINT LeftUpLeg
	{
		OFFSET 3.43402 0.00000 0.00000
		CHANNELS 3 Xrotation Yrotation Zrotation
		JOINT LeftLeg
		{
			OFFSET 0.00000 -15.71302 0.00000
			CHANNELS 3 Xrotation Yrotation Zrotation
			JOINT LeftFoot
			{
				OFFSET 0.00000 -14.43512 0.00000
				CHANNELS 3 Xrotation Yrotation Zrotation
				JOINT LeftToeBase
				{
					OFFSET 0.00000 -1.27828 4.77061
					CHANNELS 3 Xrotation Yrotation Zrotation
					End Site
					{
						OFFSET 0.00000 0.00000 2.95275
					}
				}
			}
		}
	}
	JOINT RightUpLeg
	{
		OFFSET -3.43402 0.00000 0.00000
		CHANNELS 3 Xrotation Yrotation Zrotation
		JOINT RightLeg
		{
			OFFSET 0.00000 -15.71302 0.00000
			CHANNELS 3 Xrotation Yrotation Zrotation
			JOINT RightFoot
			{
				OFFSET 0.00000 -14.43512 0.00000
				CHANNELS 3 Xrotation Yrotation Zrotation
				JOINT RightToeBase
				{
					OFFSET 0.00000 -1.27828 4.77061
					CHANNELS 3 Xrotation Yrotation Zrotation
					End Site
					{
						OFFSET 0.00000 0.00000 2.95275
					}
				}
			}
		}
	}
}
MOTION
Frames: 22
Frame Time: 0.008333
 -1.4774 32.3666 1.6011 37.5072 3.1650 -2.7554 -40.5293 -7.5823 -0.1937 4.2657 -1.3573 -4.9458 32.8984 28.3318 16.7525 -74.2340 4.3717 -49.5015 -46.0225 -0.0000 -10.0277 -18.2001 56.6212 21.4911 33.1476 -0.0000 26.2537 31.6170 -30.1013 -22.4761 -52.0848 10.0506 47.9793 -6.6481 -0.0000 -20.2937 -1.4902 10.0235 8.5008 32.8623 0.0000 -24.3270 -31.8350 -0.6930 2.5658 -3.0385 0.0000 0.0000 -3.6646 -0.2262 -1.6750 2.0092 0.0000 -0.0000 -29.7551 -9.3029 -1.3985 -5.4403 0.0000 0.0000 -4.3697 -10.8013 10.6410 12.2698 -0.0000 0.0000
 -1.4566 32.3676 1.5953 37.5543 3.1679 -2.7824 -40.5551 -7.6550 -0.1900 4.2835 -1.3582 -4.9328 32.9201 28.3161 16.7642 -74.3279 4.2109 -49.6233 -46.1302 -0.0000 -10.0919 -18.2396 56.5000 21.5638 33.1476 -0.0000 26.2537 31.6348 -30.0804 -22.4475 -52.1501 10.1349 47.9683 -6.6688 -0.0000 -20.1686 -1.5445 10.1722 8.6804 32.8623 0.0000 -24.3270 -31.8825 -0.6387 2.5484 -3.0684 -0.0000 -0.0000 -3.6535 -0.3078 -1.7276 2.0787 0.0000 0.0000 -29.8245 -9.2996 -1.4173 -5.4163 0.0000 -0.0000 -4.3357 -10.8468 10.6618 12.1927 -0.0000 0.0000
 -1.4364 32.3685 1.5921 37.5744 3.1497 -2.7979 -40.5620 -7.6892 -0.1820 4.3130 -1.3841 -4.9137 32.9235 28.2767 16.7958 -74.3853 4.0714 -49.7445 -46.3124 -0.0000 -10.1931 -18.0077 56.5901 21.2768 33.1476 -0.0000 26.2537 31.6183 -30.0436 -22.4549 -52.1796 10.1369 47.9755 -6.6413 -0.0000 -20.1000 -1.5176 10.0823 8.6059 32.8623 0.0000 -24.3270 -31.8832 -0.7198 2.5405 -3.1023 0.0000 0.0000 -3.6689 -0.2129 -1.7668 2.1605 0.0000 0.0000 -29.8622 -9.2620 -1.4314 -5.3961 0.0000 -0.0000 -4.3197 -10.9114 10.6626 12.2583 0.0000 0.0000
 -1.4140 32.3695 1.5880 37.6002 3.1305 -2.8055 -40.5705 -7.7200 -0.1714 4.3333 -1.4059 -4.8971 32.9578 28.2552 16.7988 -74.4801 3.9018 -49.8650 -46.4234 -0.0000 -10.3207 -17.8536 56.5929 21.0989 33.1476 -0.0000 26.2537 31.5617 -29.9963 -22.4972 -52.1748 10.1181 47.9843 -6.5941 -0.0000 -20.1704 -1.4812 9.9909 8.4772 32.8623 0.0000 -24.3270 -31.8974 -0.7404 2.5227 -3.1289 0.0000 0.0000 -3.6803 -0.1932 -1.8042 2.2515 -0.0000 -0.0000 -29.9205 -9.2488 -1.4578 -5.3572 0.0000 0.0000 -4.2949 -10.9417 10.6946 12.2172 0.0000 -0.0000
 -1.3918 32.3709 1.5834 37.6323 3.0951 -2.8135 -40.5803 -7.7408 -0.1516 4.3484 -1.4025 -4.8740 32.8815 28.1993 16.8848 -74.4826 3.8358 -49.9964 -46.5824 -0.0000 -10.3695 -17.6776 56.6660 20.8802 33.1476 -0.0000 26.2537 31.5356 -29.9562 -22.5024 -52.1424 10.1630 47.9407 -6.5569 -0.0000 -20.2171 -1.4905 9.9578 8.5572 32.8623 0.0000 -24.3270 -31.9260 -0.7260 2.5129 -3.1409 -0.0000 -0.0000 -3.6977 -0.2051 -1.8545 2.3215 -0.0000 0.0000 -29.9907 -9.2035 -1.4761 -5.3085 -0.0000 -0.0000 -4.2795 -10.9948 10.6967 12.2000 -0.0000 0.0000
 -1.3703 32.3723 1.5796 37.6708 3.0598 -2.8175 -40.6003 -7.7860 -0.1342 4.3610 -1.3810 -4.8589 32.8103 28.1718 16.9470 -74.4566 3.7218 -50.1100 -46.7158 -0.0000 -10.4424 -17.4766 56.7203 20.6371 33.1476 -0.0000 26.2537 31.5583 -29.9441 -22.5099 -52.1877 10.2380 47.9089 -6.5926 -0.0000 -20.0676 -1.5326 10.0418 8.7237 32.8623 0.0000 -24.3270 -31.9568 -0.7054 2.5007 -3.1672 -0.0000 -0.0000 -3.6829 -0.2441 -1.9317 2.3133 0.0000 -0.0000 -30.0730 -9.1969 -1.4984 -5.2471 0.0000 0.0000 -4.2676 -11.0035 10.7265 12.2076 -0.0000 0.0000
 -1.3480 32.3732 1.5776 37.6783 3.0374 -2.8170 -40.5924 -7.8273 -0.1122 4.3739 -1.3926 -4.8884 32.7592 28.1148 16.9810 -74.4739 3.6273 -50.2055 -46.8517 -0.0000 -10.4535 -16.9298 56.9426 19.9601 33.1476 -0.0000 26.2537 31.5847 -29.9398 -22.5269 -52.2118 10.3121 47.8896 -6.6054 -0.0000 -20.2042 -1.4857 10.0050 8.4906 32.8623 0.0000 -24.3270 -31.9661 -0.6475 2.4817 -3.1742 -0.0000 0.0000 -3.5871 -0.2771 -2.2080 2.0129 -0.0000 0.0000 -30.1270 -9.2424 -1.5273 -5.1762 0.0000 -0.0000 -4.2747 -10.9669 10.7326 12.1606 0.0000 -0.0000
 -1.3281 32.3739 1.5769 37.6931 3.0196 -2.8247 -40.5960 -7.8637 -0.0991 4.3875 -1.3960 -4.8885 32.7823 28.0968 16.9824 -74.5458 3.4313 -50.2839 -46.8555 -0.0000 -10.7176 -17.1086 56.8541 20.1847 33.1476 -0.0000 26.2537 31.5853 -29.9356 -22.5322 -52.2278 10.3661 47.8348 -6.6456 -0.0000 -20.1227 -1.5293 10.1296 8.6314 32.8623 0.0000 -24.3270 -31.9745 -0.6405 2.4681 -3.1805 -0.0000 0.0000 -3.5919 -0.2970 -2.2711 2.0130 -0.0000 0.0000 -30.1799 -9.3072 -1.5450 -5.1162 -0.0000 -0.0000 -4.2820 -10.9329 10.7365 12.1785 0.0000 0.0000
 -1.3095 32.3749 1.5752 37.7217 2.9819 -2.8190 -40.6139 -7.9017 -0.0812 4.3976 -1.3776 -4.9039 32.7813 28.0423 16.9922 -74.5664 3.3172 -50.2977 -46.9572 -0.0000 -11.0269 -16.9590 56.9469 19.9928 33.1476 -0.0000 26.2537 31.5444 -29.9133 -22.5729 -52.2474 10.4048 47.7935 -6.6877 -0.0000 -20.0264 -1.5232 10.1541 8.5775 32.8623 0.0000 -24.3270 -31.9920 -0.6308 2.4529 -3.1931 -0.0000 0.0000 -3.6041 -0.2887 -2.2956 2.0573 -0.0000 0.0000 -30.2599 -9.3545 -1.5661 -5.0384 -0.0000 0.0000 -4.2870 -10.8703 10.7458 12.1733 -0.0000 0.0000
 -1.2900 32.3758 1.5740 37.7447 2.9357 -2.7903 -40.6268 -7.9463 -0.0733 4.4016 -1.3363 -4.9224 32.7413 28.0075 17.0061 -74.5274 3.1826 -50.3135 -47.0331 -0.0000 -11.3371 -16.8263 56.9609 19.8371 33.1476 -0.0000 26.2537 31.4890 -29.8678 -22.6348 -52.2334 10.4392 47.7350 -6.6988 -0.0000 -19.9338 -1.5252 10.1043 8.6299 32.8623 0.0000 -24.3270 -31.9954 -0.6416 2.4197 -3.1919 -0.0000 0.0000 -3.7402 -0.1859 -2.0897 2.4792 -0.0000 -0.0000 -30.3258 -9.3712 -1.6007 -4.9883 0.0000 0.0000 -4.2810 -10.8398 10.7438 12.1745 -0.0000 0.0000
 -1.2696 32.3763 1.5747 37.7609 2.9029 -2.7680 -40.6377 -7.9716 -0.0652 4.4160 -1.3273 -4.9398 32.7363 27.9805 17.0131 -74.5914 3.0993 -50.3697 -47.0633 -0.0000 -11.5701 -16.6439 56.9759 19.6238 33.1476 -0.0000 26.2537 31.4935 -29.8996 -22.6624 -52.2637 10.4947 47.6970 -6.6719 -0.0000 -20.0712 -1.4976 10.0489 8.5212 32.8623 0.0000 -24.3270 -32.0056 -0.5965 2.3856 -3.2030 -0.0000 0.0000 -3.7388 -0.2567 -2.1126 2.4939 -0.0000 0.0000 -30.3674 -9.3956 -1.6399 -4.9649 0.0000 -0.0000 -4.2686 -10.8012 10.7745 12.1752 0.0000 -0.0000
 -1.2518 32.3771 1.5747 37.7869 2.8455 -2.7543 -40.6559 -7.9847 -0.0382 4.4241 -1.3083 -4.9527 32.7392 27.9571 17.0117 -74.6280 3.0084 -50.4165 -47.1728 -0.0000 -11.8440 -16.6045 56.9957 19.5743 33.1476 -0.0000 26.2537 31.4588 -29.9007 -22.6915 -52.2533 10.5411 47.6158 -6.6744 -0.0000 -20.0170 -1.5189 10.1028 8.5956 32.8623 0.0000 -24.3270 -32.0160 -0.5864 2.3771 -3.2269 0.0000 0.0000 -3.7138 -0.2720 -2.0814 2.3758 0.0000 0.0000 -30.4211 -9.3597 -1.6490 -4.9250 -0.0000 0.0000 -4.2471 -10.8361 10.7711 12.1065 0.0000 -0.0000
 -1.2335 32.3775 1.5757 37.8095 2.8107 -2.7350 -40.6736 -8.0122 -0.0251 4.4337 -1.2870 -4.9831 32.7726 27.9536 16.9823 -74.7245 2.9362 -50.4758 -47.2136 -0.0000 -12.0925 -16.3327 56.9833 19.2633 33.1476 -0.0000 26.2537 31.4564 -29.9095 -22.6792 -52.2676 10.6066 47.5184 -6.6462 -0.0000 -20.1112 -1.5026 10.1462 8.4694 32.8623 0.0000 -24.3270 -32.0239 -0.5989 2.3521 -3.2334 -0.0000 0.0000 -3.7394 -0.2304 -2.1544 2.4754 0.0000 -0.0000 -30.4816 -9.4201 -1.6759 -4.8727 -0.0000 0.0000 -4.2558 -10.7730 10.7839 12.1067 -0.0000 -0.0000
 -1.2132 32.3777 1.5775 37.8171 2.7768 -2.7114 -40.6775 -8.0541 -0.0093 4.4459 -1.2337 -5.0129 32.7094 27.9152 17.0108 -74.6936 2.9434 -50.5256 -47.3724 -0.0000 -12.3830 -16.2438 57.0691 19.1435 33.1476 -0.0000 26.2537 31.3958 -29.8943 -22.7228 -52.2201 10.6547 47.4130 -6.5884 -0.0000 -20.1084 -1.4713 10.1085 8.3258 32.8623 0.0000 -24.3270 -32.0250 -0.5742 2.3144 -3.2280 0.0000 -0.0000 -3.7301 -0.2578 -2.0939 2.3926 -0.0000 0.0000 -30.5173 -9.4516 -1.7109 -4.8398 0.0000 -0.0000 -4.2509 -10.7344 10.7931 12.1023 0.0000 -0.0000
 -1.1943 32.3775 1.5799 37.8190 2.7451 -2.6882 -40.6758 -8.0845 0.0046 4.4518 -1.1979 -5.0433 32.6699 27.8914 17.0262 -74.6789 2.9273 -50.5841 -47.5338 -0.0000 -12.7544 -16.2017 57.0684 19.0950 33.1476 -0.0000 26.2537 31.2927 -29.8615 -22.7937 -52.1538 10.6371 47.3002 -6.5242 -0.0000 -20.1192 -1.4640 10.0348 8.3444 32.8623 0.0000 -24.3270 -32.0158 -0.5697 2.2802 -3.2296 0.0000 -0.0000 -3.6747 -0.2688 -1.8848 2.0522 -0.0000 0.0000 -30.5541 -9.5072 -1.7432 -4.7936 0.0000 0.0000 -4.2640 -10.6892 10.8097 12.1218 -0.0000 0.0000
 -1.1783 32.3777 1.5839 37.8164 2.7174 -2.6660 -40.6792 -8.1302 0.0038 4.4767 -1.1297 -5.0416 32.6874 27.8793 17.0133 -74.7012 2.9752 -50.6379 -47.7922 -0.0000 -13.0498 -16.1027 57.0883 18.9767 33.1476 -0.0000 26.2537 31.2624 -29.8238 -22.7960 -52.1006 10.7262 47.1605 -6.5285 -0.0000 -20.1140 -1.4218 10.0999 8.0558 32.8623 0.0000 -24.3270 -32.0128 -0.5387 2.2514 -3.2178 0.0000 0.0000 -3.7350 -0.3486 -1.9790 2.0812 0.0000 -0.0000 -30.5802 -9.5757 -1.7698 -4.7520 -0.0000 -0.0000 -4.2706 -10.6197 10.8030 12.0646 0.0000 -0.0000
 -1.1650 32.3780 1.5897 37.8007 2.6730 -2.6519 -40.6782 -8.1538 0.0095 4.5163 -1.0956 -5.0353 32.6820 27.8900 17.0410 -74.8092 3.1236 -50.8094 -48.0126 -0.0000 -13.1220 -16.0794 57.1644 18.9348 33.1476 -0.0000 26.2537 31.2413 -29.7847 -22.7880 -52.0276 10.7675 47.0082 -6.4842 -0.0000 -20.0952 -1.4176 10.1718 7.9771 32.8623 0.0000 -24.3270 -31.9810 -0.5551 2.2462 -3.2021 0.0000 0.0000 -3.7393 -0.2574 -1.9245 2.1318 -0.0000 0.0000 -30.6574 -9.7556 -1.7854 -4.5767 0.0000 -0.0000 -4.3557 -10.4240 10.8359 12.0868 0.0000 -0.0000
 -1.1502 32.3780 1.5955 37.7832 2.5961 -2.6187 -40.6702 -8.1409 0.0275 4.5562 -1.0428 -5.0156 32.6472 27.8903 17.0644 -74.7652 3.1733 -50.9027 -48.2974 -0.0000 -13.3474 -16.0514 57.1806 18.8994 33.1476 -0.0000 26.2537 31.2510 -29.7627 -22.7546 -51.9770 10.8199 46.8451 -6.4072 -0.0000 -20.1316 -1.3991 10.2983 7.7798 32.8623 0.0000 -24.3270 -31.9453 -0.5184 2.2370 -3.1937 0.0000 -0.0000 -3.7820 -0.2254 -1.9015 2.2340 -0.0000 -0.0000 -30.6593 -9.6819 -1.7856 -4.5620 -0.0000 -0.0000 -4.3336 -10.4681 10.7246 12.0701 -0.0000 0.0000
 -1.1361 32.3779 1.6010 37.7800 2.5722 -2.5836 -40.6783 -8.1435 0.0063 4.5932 -1.0188 -4.9952 32.6232 27.8872 17.0845 -74.7791 3.2319 -51.0369 -48.5594 -0.0000 -13.4479 -15.7647 57.2880 18.5477 33.1476 -0.0000 26.2537 31.2480 -29.7593 -22.7108 -51.9067 10.9123 46.6947 -6.3773 -0.0000 -20.0869 -1.3725 10.3843 7.5714 32.8623 0.0000 -24.3270 -31.9260 -0.5706 2.2039 -3.1760 0.0000 0.0000 -3.8893 -0.1196 -2.0946 2.5440 -0.0000 -0.0000 -30.6496 -9.6113 -1.8254 -4.5778 0.0000 0.0000 -4.3276 -10.5317 10.7366 12.0861 0.0000 -0.0000
 -1.1222 32.3780 1.6069 37.7805 2.5331 -2.5526 -40.6921 -8.1451 0.0147 4.6367 -0.9728 -5.0207 32.6180 27.8963 17.0518 -74.7975 3.2121 -51.1766 -48.7862 -0.0000 -13.5487 -15.9317 57.2593 18.7458 33.1476 -0.0000 26.2537 31.2108 -29.7390 -22.7060 -51.7787 10.9976 46.5424 -6.3066 -0.0000 -20.0423 -1.3464 10.5569 7.3106 32.8623 0.0000 -24.3270 -31.9147 -0.5744 2.1748 -3.1600 -0.0000 -0.0000 -3.9154 -0.0474 -2.0988 2.6696 0.0000 0.0000 -30.6457 -9.5555 -1.8603 -4.5858 0.0000 0.0000 -4.3027 -10.5347 10.7854 12.0432 0.0000 0.0000
 -1.1079 32.3778 1.6141 37.7845 2.4715 -2.5097 -40.7141 -8.1248 0.0272 4.6848 -0.9323 -5.0341 32.5821 27.8936 17.0395 -74.7741 3.1916 -51.3032 -48.9964 -0.0000 -13.5779 -15.8483 57.2761 18.6463 33.1476 -0.0000 26.2537 31.1962 -29.7377 -22.6946 -51.6762 11.0859 46.3916 -6.2288 -0.0000 -20.0126 -1.3671 10.6642 7.3488 32.8623 0.0000 -24.3270 -31.8993 -0.5378 2.1485 -3.1543 -0.0000 -0.0000 -3.9412 0.0096 -2.1700 2.6359 0.0000 0.0000 -30.6518 -9.4804 -1.8877 -4.5921 0.0000 -0.0000 -4.2823 -10.5616 10.7887 12.0332 -0.0000 -0.0000
 -1.0936 32.3769 1.6226 37.7799 2.4252 -2.4729 -40.7334 -8.1053 0.0359 4.7389 -0.9085 -5.0432 32.5638 27.8673 17.0273 -74.7233 3.1379 -51.4044 -49.2098 -0.0000 -13.6538 -15.7800 57.3163 18.5598 33.1476 -0.0000 26.2537 31.1508 -29.7261 -22.7248 -51.5739 11.0571 46.2704 -6.1163 -0.0000 -19.8347 -1.3401 10.7867 7.1248 32.8623 0.0000 -24.3270 -31.8738 -0.4823 2.1178 -3.1531 -0.0000 -0.0000 -3.9532 -0.0471 -2.0708 2.4949 0.0000 -0.0000 -30.6605 -9.4949 -1.9264 -4.5594 -0.0000 0.0000 -4.3035 -10.4990 10.8804 12.0422 0.0000 -0.0000
